<mxfile host="app.diagrams.net" modified="2024-03-28T17:05:58.765Z" agent="Mozilla/5.0 (Windows NT 10.0; Win64; x64) AppleWebKit/537.36 (KHTML, like Gecko) Chrome/122.0.0.0 Safari/537.36 Edg/122.0.0.0" version="24.2.1" etag="8m-B5Mq5EnCsd_KHgwKV" type="github">
  <diagram name="Page-1" id="5UlXafcB7XfPWmyeJ6eb">
    <mxGraphModel>
      <root>
        <mxCell id="0" />
        <mxCell id="1" parent="0" />
      </root>
    </mxGraphModel>
  </diagram>
</mxfile>
